<?xml version="1.0" standalone="no"?>
<!DOCTYPE svg PUBLIC "-//W3C//DTD SVG 20010904//EN"
 "http://www.w3.org/TR/2001/REC-SVG-20010904/DTD/svg10.dtd">
<svg version="1.0" xmlns="http://www.w3.org/2000/svg"
 width="700.000000pt" height="700.000000pt" viewBox="0 0 700.000000 700.000000"
 preserveAspectRatio="xMidYMid meet">
<metadata>
Created by potrace 1.11, written by Peter Selinger 2001-2013
</metadata>
<g transform="translate(0.000000,700.000000) scale(0.100000,-0.100000)"
fill="#000000" stroke="none">
<path d="M4660 6715 c-402 -60 -853 -261 -1520 -678 -760 -476 -1294 -1049
-1524 -1636 -147 -374 -301 -1017 -390 -1631 -14 -96 -28 -190 -32 -209 l-5
-34 73 61 c268 220 531 325 813 324 307 0 590 -113 906 -362 92 -73 259 -235
520 -507 193 -201 239 -236 307 -235 107 3 192 75 429 362 84 102 180 215 214
252 l61 68 -49 77 c-90 140 -242 402 -308 526 -130 248 -195 415 -244 630 -61
270 -81 431 -82 660 -1 453 140 748 500 1048 53 44 184 147 291 229 351 267
456 364 589 543 139 188 169 255 150 333 -22 84 -135 162 -269 183 -87 14
-324 12 -430 -4z"/>
<path d="M1895 2569 c-81 -13 -216 -55 -297 -92 -197 -90 -372 -229 -638 -508
-427 -447 -531 -539 -657 -575 -64 -19 -112 -14 -217 22 -39 13 -74 24 -78 24
-5 0 -8 -200 -8 -444 0 -398 2 -445 16 -450 9 -3 59 -11 112 -17 308 -35 626
77 927 324 93 76 211 193 440 436 323 342 442 431 576 431 122 0 229 -90 596
-501 299 -335 453 -467 666 -570 141 -68 262 -99 414 -106 201 -10 372 31 548
129 200 113 330 235 636 598 219 261 300 343 382 390 142 82 264 3 660 -425
302 -326 436 -444 624 -548 123 -68 319 -137 389 -137 12 0 14 65 14 448 l0
447 -43 30 c-83 58 -151 123 -310 295 -415 450 -537 554 -787 674 -52 25 -140
58 -195 73 -90 24 -117 27 -260 27 -133 0 -173 -4 -240 -22 -109 -30 -175 -57
-270 -112 -194 -110 -324 -234 -620 -585 -230 -272 -295 -339 -379 -389 -154
-92 -253 -25 -698 474 -90 102 -209 227 -264 279 -221 209 -441 331 -677 376
-85 16 -278 18 -362 4z"/>
</g>
</svg>
