<?xml version="1.0" encoding="UTF-8" standalone="no"?>
<!-- Created with Inkscape (http://www.inkscape.org/) -->

<svg
   xmlns:dc="http://purl.org/dc/elements/1.1/"
   xmlns:cc="http://creativecommons.org/ns#"
   xmlns:rdf="http://www.w3.org/1999/02/22-rdf-syntax-ns#"
   xmlns:svg="http://www.w3.org/2000/svg"
   xmlns="http://www.w3.org/2000/svg"
   xmlns:sodipodi="http://sodipodi.sourceforge.net/DTD/sodipodi-0.dtd"
   xmlns:inkscape="http://www.inkscape.org/namespaces/inkscape"
   width="59.986835mm"
   height="60.090565mm"
   viewBox="0 0 212.55178 212.91932"
   id="svg2"
   version="1.1"
   inkscape:version="0.91 r13725"
   sodipodi:docname="hfsp.svg"
   inkscape:export-filename="/Users/kazmar/Downloads/hfsp-110px.png"
   inkscape:export-xdpi="46.580002"
   inkscape:export-ydpi="46.580002">
  <defs
     id="defs4" />
  <sodipodi:namedview
     id="base"
     pagecolor="#ffffff"
     bordercolor="#666666"
     borderopacity="1.0"
     inkscape:pageopacity="0.0"
     inkscape:pageshadow="2"
     inkscape:zoom="2.8"
     inkscape:cx="99.85323"
     inkscape:cy="99.126561"
     inkscape:document-units="px"
     inkscape:current-layer="layer1"
     showgrid="false"
     fit-margin-top="0"
     fit-margin-left="0"
     fit-margin-right="0"
     fit-margin-bottom="0"
     inkscape:window-width="1436"
     inkscape:window-height="855"
     inkscape:window-x="0"
     inkscape:window-y="1"
     inkscape:window-maximized="1" />
  <metadata
     id="metadata7">
    <rdf:RDF>
      <cc:Work
         rdf:about="">
        <dc:format>image/svg+xml</dc:format>
        <dc:type
           rdf:resource="http://purl.org/dc/dcmitype/StillImage" />
        <dc:title></dc:title>
      </cc:Work>
    </rdf:RDF>
  </metadata>
  <g
     inkscape:label="Layer 1"
     inkscape:groupmode="layer"
     id="layer1"
     transform="translate(-146.57534,-336.57866)">
    <path
       style="fill:#0e0ef5"
       d="m 243.72856,549.14092 c -26.90649,-2.14255 -52.29153,-14.95561 -70.5636,-35.61687 -15.39848,-17.41194 -24.55456,-39.10646 -26.25928,-62.21898 -0.96542,-13.08916 0.17111,-24.84758 3.59595,-37.20337 4.07397,-14.69763 11.7767,-28.95175 22.13858,-40.96806 15.02172,-17.42016 36.29717,-29.89167 58.74549,-34.43619 13.95484,-2.82506 28.98802,-2.82506 42.94286,0 24.73488,5.00742 47.34661,19.23274 62.91245,39.57904 15.5141,20.27867 23.16388,45.12807 21.71172,70.52801 -0.48293,8.44705 -1.24366,13.40205 -3.24611,21.14342 -9.40804,36.37093 -37.53598,65.20315 -73.73189,75.57802 -11.87633,3.40412 -25.14478,4.65824 -38.24617,3.61498 z m 18.12509,-1.80935 c 17.57901,-1.61559 34.20131,-7.41316 48.47491,-16.9072 9.46999,-6.29894 19.17838,-15.48466 26.14094,-24.73359 3.73728,-4.96454 7.40439,-10.9315 10.11404,-16.45714 10.8754,-22.17761 13.61579,-47.58338 7.68279,-71.22615 -4.78467,-19.06673 -13.85467,-35.07685 -27.73513,-48.95732 -8.73185,-8.73185 -16.85469,-14.54704 -28.05441,-20.08433 -23.06872,-11.40548 -49.4865,-13.71702 -74.54823,-6.52293 -10.96243,3.14681 -23.75775,9.45351 -32.65714,16.09638 -8.44874,6.3065 -16.11145,13.93083 -22.30568,22.19394 -9.43781,12.59009 -16.19136,28.21822 -18.98198,43.9255 -0.91066,5.12576 -1.6552,13.41038 -1.6552,18.41776 0,4.73322 0.7292,13.13868 1.55041,17.87143 1.64989,9.50857 5.23628,20.39591 9.487,28.8 5.44001,10.75544 11.5551,19.09508 20.37494,27.78692 6.76197,6.66384 12.07237,10.82393 19.62438,15.37346 18.56883,11.18635 41.10639,16.38836 62.48836,14.42327 z m -12.98224,-4.65915 c -15.18407,-0.86296 -26.78159,-3.77862 -39.21428,-9.85864 -8.75784,-4.28288 -14.36037,-7.94772 -21.59854,-14.12847 -9.53017,-8.13791 -17.73384,-18.49137 -23.4382,-29.58024 -5.5677,-10.82322 -8.50222,-20.04893 -10.42853,-32.78572 -0.53026,-3.50612 -0.58198,-4.73469 -0.56825,-13.5 0.0144,-9.19147 0.0477,-9.84748 0.71058,-14.01428 1.28743,-8.09227 2.83266,-14.09712 5.33715,-20.7405 12.57788,-33.36386 41.68816,-57.43281 76.60007,-63.33445 4.4399,-0.75054 12.26781,-1.42138 16.58572,-1.42138 7.06933,0 16.52018,1.13878 23.52857,2.83506 31.82617,7.7031 58.08518,31.04857 69.70124,61.96764 2.50875,6.67767 4.24064,13.52903 5.39344,21.33648 0.68916,4.66743 0.96641,15.90329 0.53934,21.85715 -0.64127,8.94014 -2.82309,18.55 -6.23299,27.45331 -12.15231,31.72995 -40.08855,55.41875 -73.1296,62.01093 -5.20886,1.03924 -8.87357,1.49717 -14.50965,1.81305 -4.52899,0.25384 -6.12208,0.2693 -9.27607,0.0901 z m -14.91428,-9.96744 c 0,-0.0629 -1.6581,-0.93134 -3.68466,-1.92986 -6.3539,-3.13064 -12.09291,-7.28297 -17.4926,-12.65634 l -3.04869,-3.03383 -2.99417,-0.80235 c -6.47489,-1.73507 -11.50167,-3.61568 -16.57331,-6.20039 -1.66996,-0.85108 -3.09372,-1.48999 -3.1639,-1.41981 -0.0702,0.0702 1.55542,1.69136 3.61244,3.60262 8.47164,7.87135 17.94097,13.88498 28.57086,18.14435 5.70035,2.28411 14.77403,4.92232 14.77403,4.29561 z m 40.42575,-0.38376 c 12.32794,-2.88118 25.11164,-9.20689 35.75688,-17.69343 2.65002,-2.11264 8.75148,-7.78861 8.56882,-7.97127 -0.0695,-0.0695 -1.2602,0.45453 -2.64604,1.16447 -5.23968,2.68421 -10.13513,4.5608 -16.23939,6.22511 l -3.82241,1.04218 -3.05752,3.0369 c -5.43505,5.39842 -11.11442,9.50298 -17.50745,12.6529 -4.61914,2.27592 -4.70089,2.39572 -1.05289,1.54314 z m -18.09227,-0.81301 c 2.14107,-1.05404 4.4385,-3.33243 6.45667,-6.40314 1.56577,-2.38238 3.09556,-5.15613 3.09556,-5.61272 0,-0.12876 -5.63284,-0.22739 -12.98571,-0.22739 -7.40493,0 -12.98572,0.0982 -12.98572,0.2286 0,0.42648 1.34322,2.90255 2.76515,5.09722 2.71892,4.19652 5.15398,6.45396 8.08992,7.49985 1.78257,0.63502 3.44453,0.46106 5.56413,-0.58242 z m -13.59062,-0.48756 c 0,-0.14072 -0.58398,-0.97964 -1.29772,-1.86429 -1.42874,-1.77083 -3.52081,-5.18267 -5.00696,-8.16558 -0.52847,-1.06071 -1.06793,-1.99703 -1.1988,-2.0807 -0.13087,-0.0837 -1.93863,-0.29804 -4.01723,-0.47636 -3.19753,-0.27431 -8.75912,-0.97963 -13.42215,-1.70219 l -1.15714,-0.17931 0.9,0.9514 c 1.33169,1.40773 5.20369,4.49648 7.867,6.27561 4.36109,2.91328 9.99914,5.56304 14.633,6.87719 2.36696,0.67127 2.7,0.71619 2.7,0.36423 z m 22.93463,-0.35797 c 7.42805,-2.04366 16.24188,-7.08803 22.00108,-12.59174 1.29688,-1.23935 1.37114,-1.57153 0.30359,-1.35802 -1.94286,0.38857 -10.2163,1.44914 -13.53715,1.73533 -2.01024,0.17324 -3.75754,0.38225 -3.88287,0.46447 -0.12533,0.0822 -0.88521,1.43888 -1.68863,3.0148 -1.49734,2.93708 -3.75996,6.50663 -5.07596,8.00793 -0.72488,0.82694 -0.9341,1.34105 -0.54574,1.34105 0.10706,0 1.19862,-0.27622 2.42568,-0.61382 z m 1.25225,-14.24633 c 0.5336,-0.2119 0.85759,-0.78982 1.71023,-3.05064 1.3242,-3.5112 1.88365,-5.18688 2.8629,-8.57493 0.89674,-3.10256 2.53773,-9.81436 2.65839,-10.87301 l 0.0816,-0.71587 -21.34285,0 -21.34286,0 0.0829,0.71587 c 0.12827,1.10845 2.04698,8.80165 2.9914,11.99428 1.04482,3.53199 3.3687,9.92444 3.74475,10.30088 0.15265,0.15282 1.51583,0.35293 3.02928,0.44468 4.2314,0.25654 24.75939,0.0625 25.52432,-0.24126 z m -32.85883,-0.4679 c 0.0861,-0.0861 -0.0846,-0.7515 -0.37953,-1.47857 -1.46517,-3.61258 -4.03082,-12.51173 -5.34817,-18.55053 -0.72578,-3.32697 -0.65572,-3.21467 -2.00312,-3.2108 -3.42666,0.01 -19.07733,-1.23152 -24.48079,-1.94176 -1.79877,-0.23643 -2.78355,-0.2689 -2.95502,-0.0974 -0.32482,0.32482 2.19359,5.35233 5.0264,10.03423 2.04054,3.37247 6.16784,9.03849 8.26457,11.34572 1.076,1.18402 1.17168,1.2287 3.67618,1.71661 3.63718,0.70858 5.76214,1.03058 11.18571,1.69499 5.07236,0.62139 6.76243,0.73887 7.01377,0.48754 z m 42.6148,-0.24031 c 6.12278,-0.66444 15.27131,-2.14518 15.98717,-2.5876 0.37825,-0.23377 4.47086,-5.35085 6.08824,-7.61226 3.30148,-4.6161 8.627,-14.34652 8.12609,-14.84743 -0.16013,-0.16012 -1.20925,-0.1224 -2.94651,0.10594 -5.40346,0.71024 -21.05413,1.95161 -24.48079,1.94176 -1.1877,-0.003 -1.21614,0.0155 -1.44645,0.9608 -0.12922,0.53036 -0.83951,3.45093 -1.57842,6.49017 -1.31211,5.39682 -3.38126,12.24059 -4.36547,14.43888 -0.77808,1.7379 -0.90067,1.70843 4.61614,1.10974 z m -70.33828,-4.93879 c -0.25001,-0.38893 -0.76876,-1.11214 -1.15276,-1.60714 -2.66103,-3.4302 -7.52095,-11.70428 -9.5693,-16.29186 -0.70364,-1.5759 -1.31531,-2.90375 -1.35928,-2.95077 -0.044,-0.047 -2.34124,-0.53503 -5.10506,-1.08447 -7.39341,-1.46977 -13.48249,-3.29937 -17.1865,-5.16404 -1.12785,-0.56779 -1.2318,-0.5812 -1.23127,-0.15886 6.4e-4,0.51304 3.23218,6.25795 5.07621,9.0243 4.73268,7.09976 12.18,12.47493 22.89966,16.52802 2.98089,1.12707 6.93551,2.37314 7.6033,2.39574 0.46202,0.0156 0.46293,-0.01 0.025,-0.69092 z m 97.63098,-0.6007 c 12.17733,-4.02745 20.89368,-9.94016 25.99279,-17.63214 2.73065,-4.11917 5.34493,-8.91531 5.03079,-9.22945 -0.0837,-0.0837 -0.64343,0.0985 -1.24388,0.4048 -3.54069,1.80632 -9.68744,3.64587 -17.11914,5.12325 -2.76382,0.54944 -5.05586,1.03744 -5.09341,1.08447 -0.0376,0.047 -0.66766,1.42189 -1.40022,3.05527 -2.10001,4.68232 -6.0725,11.42605 -9.5354,16.18736 -1.80212,2.47783 -1.78287,2.41468 -0.67282,2.20644 0.52488,-0.0985 2.34347,-0.63847 4.04129,-1.2 z M 273.09268,490.4842 c 0.9467,-0.0888 1.77075,-0.29083 1.83123,-0.44889 0.0605,-0.15806 0.53906,-3.18024 1.06352,-6.71596 0.52446,-3.53571 1.0044,-6.68893 1.06653,-7.00714 0.10326,-0.52886 0.25614,-0.57857 1.77949,-0.57857 l 1.66653,0 0,0.8918 c 0,0.9253 -1.07522,8.73725 -1.53668,11.16472 -0.35301,1.85694 -0.33289,2.26176 0.12111,2.43597 0.21143,0.0811 2.72822,-0.0258 5.59286,-0.23763 2.86463,-0.21183 6.66137,-0.49156 8.43718,-0.62161 2.99117,-0.21907 6.61016,-0.60149 12.51649,-1.32263 1.30561,-0.1594 2.53679,-0.41986 2.73596,-0.5788 0.40361,-0.32206 1.65617,-3.59577 3.2488,-8.49112 l 1.05431,-3.2407 1.81504,0 1.81503,0 -0.17171,0.91528 c -0.0944,0.5034 -0.81023,2.78876 -1.59065,5.07857 -0.78041,2.28981 -1.48618,4.38309 -1.56838,4.65173 -0.13835,0.45219 -0.0463,0.47521 1.2406,0.31017 2.67168,-0.34264 9.48938,-1.97737 12.95666,-3.10672 4.22546,-1.3763 7.72004,-3.16757 9.39377,-4.8151 0.9306,-0.91605 1.43218,-1.71933 2.01065,-3.22008 2.29149,-5.94501 4.33927,-14.25281 5.34166,-21.67099 0.68637,-5.07947 0.62133,-17.09973 -0.12157,-22.47138 -1.16036,-8.39003 -3.6005,-17.63496 -5.8006,-21.97666 -1.18216,-2.33288 -3.64852,-4.0903 -8.36293,-5.95907 -4.00292,-1.58674 -15.38768,-4.38035 -16.34853,-4.01164 -0.23697,0.0909 0.11575,1.44481 1.30145,4.99552 0.89459,2.67893 1.70632,5.29614 1.80385,5.81603 l 0.17733,0.94526 -1.85368,-0.0762 -1.85367,-0.0762 -1.09577,-3.47143 c -1.32399,-4.19447 -2.87719,-8.4929 -3.17727,-8.79298 -0.49394,-0.49394 -11.68878,-1.74845 -21.26702,-2.38321 -3.39429,-0.22495 -6.59061,-0.45077 -7.10295,-0.50182 -1.6457,-0.16401 -1.67088,-0.0726 -1.03348,3.75066 0.58062,3.48276 1.57929,10.56635 1.57929,11.20201 0,0.26661 -0.40709,0.33091 -1.727,0.2728 -2.03052,-0.0894 -1.83378,0.29717 -2.52528,-4.96175 -0.55403,-4.2135 -1.54078,-10.12163 -1.72048,-10.30133 -0.0751,-0.0751 -5.05601,-0.2652 -11.06878,-0.42254 -8.03641,-0.2103 -13.80891,-0.21003 -21.79177,0.001 -5.9727,0.15789 -10.90935,0.33696 -10.97033,0.39794 -0.18546,0.18546 -1.02296,5.19144 -1.61982,9.68208 -0.78517,5.9075 -0.61445,5.513 -2.42624,5.60681 -0.83104,0.043 -1.61618,-0.027 -1.74478,-0.15557 -0.23778,-0.23778 0.31164,-4.74648 1.37991,-11.32398 0.62106,-3.82394 0.59685,-3.91121 -1.03962,-3.74813 -0.51234,0.0511 -3.70867,0.27735 -7.10295,0.50287 -5.28499,0.35114 -16.61523,1.42932 -18.64286,1.77404 -0.35357,0.0601 -1.06744,0.17845 -1.58637,0.26296 -0.89191,0.14525 -0.987,0.2581 -1.73848,2.06322 -0.61157,1.46907 -2.80648,7.94684 -3.50815,10.35349 -0.13152,0.45112 -3.71093,0.45112 -3.70719,0 0.004,-0.5004 1.61342,-5.69065 2.67784,-8.63668 0.52822,-1.46197 0.89375,-2.72477 0.81229,-2.80624 -0.49747,-0.49746 -12.60986,2.45758 -16.61707,4.05405 -4.90108,1.95258 -7.25026,3.68332 -8.54574,6.29602 -1.58649,3.19957 -4.0402,11.96168 -5.04067,18 -1.02605,6.19275 -1.15423,7.91711 -1.14694,15.42857 0.008,8.07313 0.2231,10.38498 1.65624,17.78736 1.20618,6.23015 3.89577,14.85786 5.22763,16.76932 2.04942,2.94128 8.50933,5.78566 17.83843,7.85449 4.68572,1.03912 6.73533,1.34334 6.73533,0.99975 0,-0.13258 -0.36187,-1.21784 -0.80415,-2.4117 -0.91462,-2.46884 -2.53203,-7.66618 -2.53604,-8.14922 -0.002,-0.22655 0.52461,-0.32143 1.78374,-0.32143 l 1.78642,0 1.06324,3.27857 c 1.66014,5.1191 3.04962,8.5089 3.54274,8.64291 1.52733,0.41506 12.46599,1.55629 19.97833,2.08433 3.11143,0.21871 6.35143,0.45647 7.2,0.52837 2.22206,0.18827 2.33612,0.0579 1.95308,-2.23218 -0.64075,-3.83099 -1.56737,-10.59002 -1.56737,-11.43295 l 0,-0.86908 1.66653,0 c 1.52222,0 1.67664,0.0501 1.78333,0.57857 0.0642,0.31821 0.47963,3.06643 0.92309,6.10714 1.14162,7.82779 1.17592,7.96421 2.01264,8.00426 9.03686,0.43252 37.09229,0.47349 41.49282,0.0606 z m 0.59302,-23.87081 c -0.84857,-0.18509 -2.28602,-0.63874 -3.19433,-1.00813 -1.97447,-0.80298 -2.0771,-0.81179 -2.0771,-0.17837 0,1.15703 -0.23569,1.30675 -2.05714,1.30675 -1.35398,0 -1.77995,-0.0911 -1.90106,-0.40675 -0.20357,-0.53049 -0.20357,-10.99887 0,-11.52936 0.12138,-0.31632 0.54907,-0.40675 1.92367,-0.40675 2.06026,0 1.99395,-0.10157 2.09834,3.21429 l 0.0648,2.05714 1.22461,0.81843 c 2.2415,1.49803 3.87807,1.9799 6.74682,1.9865 2.96643,0.007 4.4192,-0.51641 5.79992,-2.08897 1.04218,-1.18698 1.27151,-1.85432 1.27151,-3.70009 0,-3.06554 -1.53991,-4.67927 -9.46219,-9.91581 -3.15698,-2.08672 -5.89911,-4.10636 -6.73781,-4.96255 -2.64651,-2.70168 -3.47354,-5.09323 -3.2999,-9.54244 0.11463,-2.93757 0.63844,-4.48287 2.3072,-6.80657 1.11957,-1.55897 3.7715,-3.29693 6.13556,-4.02098 2.50143,-0.76613 7.77504,-0.83928 10.06814,-0.13966 1.82955,0.55819 2.01757,0.55453 2.01757,-0.0392 0,-0.80783 0.62788,-1.09221 2.22831,-1.00925 l 1.50026,0.0778 0.0692,5.7328 0.0692,5.73279 -1.86923,-0.0757 -1.86924,-0.0756 -0.0743,-2.25312 -0.0743,-2.25313 -0.95423,-0.59953 c -2.93643,-1.84491 -6.43622,-2.24332 -8.79661,-1.00137 -0.80868,0.4255 -1.66493,1.15197 -2.14983,1.82399 -0.71433,0.98997 -0.80599,1.31561 -0.80683,2.8666 -7.8e-4,1.55215 0.0901,1.87616 0.80496,2.86888 1.03809,1.4415 3.2802,3.15106 8.74192,6.66552 5.33068,3.43012 7.32143,5.33202 8.77179,8.38022 0.89209,1.8749 0.96618,2.21337 1.05709,4.82885 0.16592,4.77342 -0.75255,7.41191 -3.54291,10.17776 -2.72172,2.69782 -5.80253,3.86842 -10.08521,3.83203 -1.32316,-0.0112 -3.10003,-0.17187 -3.9486,-0.35695 z m -98.05141,-0.61367 c -0.22296,-0.14275 -0.31004,-0.64279 -0.25714,-1.47667 l 0.08,-1.26084 2.18571,-0.12857 2.18572,-0.12857 0,-19.15715 0,-19.15714 -2.18572,-0.12857 -2.18571,-0.12857 0,-1.41429 0,-1.41428 8.43436,-0.0678 8.43437,-0.0678 -0.0772,1.48211 -0.0772,1.4821 -2.05714,0.12857 -2.05714,0.12857 0,8.22857 0,8.22857 9.64285,0 9.64286,0 0,-8.22857 0,-8.22857 -1.91708,-0.0766 c -1.0544,-0.0421 -2.07247,-0.20557 -2.26239,-0.36319 -0.22119,-0.18357 -0.31774,-0.71057 -0.26863,-1.46624 l 0.0767,-1.17966 8.48572,0 8.48571,0 0.08,1.11186 c 0.11722,1.6291 -0.18223,1.84528 -2.55598,1.84528 l -2.02729,0 0.0659,19.22143 0.0659,19.22143 2.18571,0.12857 2.18572,0.12857 0.08,1.11186 c 0.13746,1.91045 0.43997,1.84528 -8.56571,1.84528 -9.00569,0 -8.70318,0.0652 -8.56572,-1.84528 l 0.08,-1.11186 1.97001,-0.0747 c 1.2437,-0.0472 2.07457,-0.20068 2.25361,-0.41641 0.197,-0.23738 0.26287,-2.88405 0.21571,-8.66816 l -0.0679,-8.32645 -9.64286,0 -9.64286,0 -0.0679,8.46832 c -0.0529,6.60372 0.004,8.51376 0.25714,8.67464 0.17876,0.11347 1.16971,0.20808 2.20212,0.21024 l 1.87712,0.004 -0.0771,1.47857 -0.0771,1.47857 -8.1,0.0624 c -4.455,0.0343 -8.2517,-0.0347 -8.43712,-0.15345 z m 50.62433,-0.14708 c -0.16739,-0.20169 -0.26835,-0.86705 -0.22435,-1.47857 l 0.08,-1.11186 2.35484,-0.0736 c 1.56238,-0.0489 2.44991,-0.1882 2.63739,-0.41409 0.20099,-0.24218 0.26352,-5.78785 0.21659,-19.21209 l -0.066,-18.87163 -2.3009,-0.075 c -1.26549,-0.0413 -2.45713,-0.20471 -2.64809,-0.36319 -0.22325,-0.18528 -0.31984,-0.7093 -0.27054,-1.46782 l 0.0767,-1.17966 13.74086,-0.12858 13.74085,-0.12857 0.2165,-0.83571 0.21649,-0.83572 1.76514,0 c 1.37236,0 1.79987,0.0905 1.92122,0.40675 0.0858,0.22371 0.15608,2.52973 0.15608,5.12449 0,5.41058 -0.041,5.52591 -1.96384,5.52591 -1.98493,0 -2.15044,-0.20851 -2.15044,-2.70905 l 0,-2.17667 -6.81811,0 -6.81812,0 0.0681,7.65 0.0681,7.65 5.14286,0 5.14285,0 0.12857,-2.18571 0.12858,-2.18572 1.8,0 1.8,0 0.0687,6.48147 c 0.0788,7.43551 0.18666,7.11243 -2.32638,6.96742 l -1.34229,-0.0775 -0.12858,-2.18571 -0.12857,-2.18571 -5.14285,0 -5.14286,0 0,8.61428 0,8.61429 2.12143,0.0747 2.12143,0.0747 0,1.37637 c 0,1.01787 -0.10595,1.41703 -0.40675,1.53246 -0.22371,0.0858 -4.25954,0.15608 -8.96851,0.15608 -7.09956,0 -8.61375,-0.0626 -8.86611,-0.36671 z m 71.90159,0.19837 c -0.096,-0.096 -0.17451,-0.78732 -0.17451,-1.53629 l 0,-1.36178 2.37857,-0.0739 2.37857,-0.0739 0.0659,-19.21176 0.0659,-19.21176 -2.3802,-0.074 -2.38021,-0.074 -0.0771,-1.47857 -0.0771,-1.47858 11.00569,0.009 c 8.06064,0.007 11.52523,0.10166 12.9472,0.35536 4.53583,0.80925 8.11879,3.74042 9.52562,7.79275 0.68102,1.96166 0.90749,5.25015 0.50399,7.31805 -0.43762,2.24268 -1.87633,4.86036 -3.64147,6.62551 -2.82939,2.82939 -7.53559,4.61107 -11.38899,4.31166 -2.71807,-0.2112 -2.72637,-0.21771 -2.72637,-2.13982 l 0,-1.64391 1.49705,0 c 3.10916,0 5.3959,-1.5166 6.52272,-4.32596 0.50319,-1.25455 0.58614,-1.9297 0.59001,-4.80262 0.007,-5.00951 -1.01773,-7.36713 -3.79091,-8.72392 -1.28417,-0.62828 -1.60375,-0.67447 -4.1973,-0.60664 l -2.80729,0.0734 -0.066,18.35729 c -0.048,13.34715 0.0132,18.45278 0.22434,18.70715 0.20918,0.25204 1.00399,0.34985 2.84313,0.34985 l 2.55277,0 -0.0771,1.47857 -0.0771,1.47857 -9.53263,0.0674 c -5.24294,0.0371 -9.61116,-0.0112 -9.70714,-0.10714 z m -125.2038,-63.95542 c 3.39815,-1.70293 9.1346,-3.38806 15.87215,-4.66255 5.74202,-1.08618 5.29543,-0.87657 6.14533,-2.88441 2.019,-4.76979 6.29397,-12.23729 9.68887,-16.92449 0.97905,-1.35172 1.78009,-2.56792 1.78009,-2.70266 0,-0.36456 -0.35532,-0.31001 -2.76199,0.42407 -3.73762,1.14005 -7.50259,2.63119 -11.25753,4.45863 -9.62977,4.68658 -15.24292,10.21628 -20.44048,20.1366 -1.79867,3.43302 -1.75775,3.52358 0.97356,2.15481 z m 160.775,-2.15481 c -5.19756,-9.92032 -10.81071,-15.45002 -20.44048,-20.1366 -3.75495,-1.82744 -7.51991,-3.31858 -11.25753,-4.45863 -3.35702,-1.02395 -3.38337,-0.99003 -1.35808,1.74857 3.4276,4.6348 7.52367,11.66159 9.69472,16.63127 1.28694,2.94587 0.68855,2.60537 6.51566,3.70765 6.75432,1.27766 12.55,2.98173 15.81428,4.64978 2.78627,1.42378 2.84058,1.31099 1.03143,-2.14204 z M 202.113,395.38412 c 4.38738,-0.56895 13.54593,-1.35285 19.75841,-1.69115 3.04072,-0.16558 5.56443,-0.33395 5.60825,-0.37416 0.0438,-0.0402 0.82028,-3.08912 1.72546,-6.77536 0.90518,-3.68625 2.36099,-8.85087 3.23514,-11.47694 0.87414,-2.62607 1.51063,-4.8534 1.41441,-4.94962 -0.36556,-0.36556 -13.76548,1.33587 -18.64979,2.36802 -1.05017,0.22192 -2.08082,0.54545 -2.29033,0.71897 -1.51386,1.25371 -6.54284,7.98513 -8.97665,12.01547 -2.06545,3.42034 -5.50062,10.16586 -5.28619,10.38029 0.21322,0.21322 0.10145,0.22018 3.46129,-0.21552 z m 104.94533,0.21974 c 0.22889,-0.22889 -2.90276,-6.37893 -5.13779,-10.08977 -2.68766,-4.46234 -7.52002,-10.9845 -9.12083,-12.31021 -0.20951,-0.17352 -1.24016,-0.49705 -2.29033,-0.71897 -4.87936,-1.0311 -18.28414,-2.73367 -18.64914,-2.36867 -0.0959,0.0959 0.58466,2.46293 1.51229,5.26013 0.92762,2.79721 2.28758,7.5737 3.02212,10.61441 0.73455,3.04071 1.44249,5.9625 1.57321,6.49286 0.20197,0.81946 0.34237,0.96403 0.93489,0.96256 3.32572,-0.008 20.20054,1.31453 24.61152,1.92919 2.85345,0.39762 3.34334,0.4292 3.54406,0.22847 z m -32.94548,-3.49269 c -0.15222,-1.48316 -2.56665,-10.74511 -3.74053,-14.34896 -1.40441,-4.31159 -2.64761,-7.46543 -3.14223,-7.97143 -0.32602,-0.33352 -2.27115,-0.38572 -14.37296,-0.38572 -12.10182,0 -14.04695,0.0522 -14.37296,0.38572 -0.49462,0.506 -1.73783,3.65986 -3.14223,7.97143 -1.57532,4.83633 -3.91101,14.34273 -3.72756,15.17143 0.0157,0.0707 9.60382,0.1056 21.30703,0.0775 l 21.27857,-0.051 -0.0871,-0.84896 z m -77.0097,-17.14263 c 3.21125,-1.25779 10.9547,-3.6349 11.8407,-3.6349 0.22657,0 1.86832,-1.43097 3.64833,-3.17993 5.9244,-5.82106 11.32006,-9.71754 17.89352,-12.92182 4.40264,-2.1461 4.23707,-2.33643 -0.86138,-0.9902 -6.56075,1.73235 -11.11947,3.47104 -17.57542,6.70324 -8.91966,4.46566 -15.75888,9.31707 -22.77034,16.15215 -1.16678,1.13743 -2.12143,2.15823 -2.12143,2.26843 0,0.11021 1.47536,-0.53537 3.27857,-1.43462 1.80322,-0.89924 4.80357,-2.2323 6.66745,-2.96235 z m 118.62541,1.4383 c -6.6211,-6.36411 -13.45881,-11.15409 -22.0939,-15.47728 -6.42419,-3.2163 -10.99318,-4.95795 -17.54472,-6.68787 -1.88805,-0.49853 -3.7221,-0.90452 -4.07567,-0.9022 -0.39826,0.003 0.92254,0.77646 3.47143,2.03387 6.61022,3.26094 11.55252,6.83414 17.51545,12.66332 1.85492,1.81333 3.55453,3.29696 3.7769,3.29696 0.22237,0 2.2221,0.52172 4.44384,1.15939 4.63985,1.33169 10.59633,3.64761 14.50667,5.64028 1.485,0.75674 2.75785,1.31739 2.82857,1.24589 0.0707,-0.0715 -1.20215,-1.40906 -2.82857,-2.97236 z m -93.72857,-7.65307 c 1.98,-0.28818 5.45142,-0.6937 7.71428,-0.90115 6.21253,-0.56954 5.47959,-0.22669 6.95394,-3.25291 1.36743,-2.80677 3.98775,-6.92044 5.41321,-8.49825 0.48164,-0.53312 0.87571,-1.04162 0.87571,-1.13 0,-0.31989 -2.24952,0.20332 -5.25398,1.222 -4.93531,1.67335 -11.2028,5.0068 -15.06031,8.01005 -5.18642,4.03786 -6.64678,5.57865 -4.94999,5.2226 0.38892,-0.0816 2.32714,-0.38416 4.30714,-0.67234 z m 66.72857,0.4396 c 0,-0.63727 -6.00529,-5.47024 -9.45804,-7.6117 -4.5498,-2.82188 -11.87817,-5.98005 -15.29196,-6.59009 -1.18373,-0.21154 -1.29948,0.25409 -0.29585,1.19009 1.06367,0.992 3.79148,5.26483 5.27638,8.26491 1.56612,3.16419 0.977,2.85264 6.26947,3.31557 1.98,0.1732 5.68285,0.62732 8.22857,1.00918 2.54571,0.38185 4.77321,0.70958 4.95,0.72829 0.17678,0.0187 0.32143,-0.1191 0.32143,-0.30625 z m -22.88572,-2.74382 c 0,-0.54413 -2.52272,-4.79928 -4.10974,-6.932 -2.16147,-2.90472 -4.45898,-4.75151 -6.90744,-5.55236 -1.742,-0.56978 -3.2155,-0.39683 -5.28056,0.6198 -2.08306,1.02548 -3.62769,2.39777 -5.50868,4.89404 -1.64907,2.18847 -4.16501,6.42554 -4.16501,7.01424 0,0.31707 1.85887,0.37004 12.98572,0.37004 11.76255,0 12.98571,-0.039 12.98571,-0.41376 z"
       id="path3454"
       inkscape:connector-curvature="0" />
  </g>
</svg>
