<?xml version="1.0" encoding="UTF-8" standalone="no"?>
<!-- Created with Inkscape (http://www.inkscape.org/) -->

<svg
   xmlns:dc="http://purl.org/dc/elements/1.1/"
   xmlns:cc="http://creativecommons.org/ns#"
   xmlns:rdf="http://www.w3.org/1999/02/22-rdf-syntax-ns#"
   xmlns:svg="http://www.w3.org/2000/svg"
   xmlns="http://www.w3.org/2000/svg"
   xmlns:sodipodi="http://sodipodi.sourceforge.net/DTD/sodipodi-0.dtd"
   xmlns:inkscape="http://www.inkscape.org/namespaces/inkscape"
   width="129.90912mm"
   height="86.949631mm"
   viewBox="0 0 460.30793 308.08924"
   id="svg2"
   version="1.1"
   inkscape:version="0.91 r13725"
   sodipodi:docname="logo.svg"
   inkscape:export-filename="/Users/kazmar/projs/paulilab.github.io/assets/img/logo-nav.png"
   inkscape:export-xdpi="7.5845904"
   inkscape:export-ydpi="7.5845904">
  <defs
     id="defs4" />
  <sodipodi:namedview
     id="base"
     pagecolor="#ffffff"
     bordercolor="#666666"
     borderopacity="1.0"
     inkscape:pageopacity="0.0"
     inkscape:pageshadow="2"
     inkscape:zoom="0.94750442"
     inkscape:cx="211.68439"
     inkscape:cy="154.04462"
     inkscape:document-units="px"
     inkscape:current-layer="layer1"
     showgrid="false"
     fit-margin-top="3"
     fit-margin-left="3"
     fit-margin-right="3"
     fit-margin-bottom="3"
     units="mm"
     inkscape:window-width="1276"
     inkscape:window-height="755"
     inkscape:window-x="0"
     inkscape:window-y="1"
     inkscape:window-maximized="1" />
  <metadata
     id="metadata7">
    <rdf:RDF>
      <cc:Work
         rdf:about="">
        <dc:format>image/svg+xml</dc:format>
        <dc:type
           rdf:resource="http://purl.org/dc/dcmitype/StillImage" />
        <dc:title></dc:title>
      </cc:Work>
    </rdf:RDF>
  </metadata>
  <g
     inkscape:label="Layer 1"
     inkscape:groupmode="layer"
     id="layer1"
     transform="translate(-78.162722,-648.49043)">
    <g
       id="g4165"
       transform="translate(7.0710708,404.06102)">
      <path
         style="fill:#1bb5e9"
         d="m 143.78575,541.31846 c -11.64778,-1.92991 -35.90287,-13.79277 -56.250002,-27.51118 -6.08052,-4.09959 -7.120504,-6.5457 -4.377729,-10.29666 1.30255,-1.78135 1.848724,-1.56899 10.75,4.17961 22.588661,14.58817 42.465971,24.17441 51.933331,25.04592 9.6543,0.88873 17.31906,-3.81377 44.70821,-27.42944 23.39909,-20.17533 32.6221,-25.55166 43.83347,-25.55166 11.06342,0 18.87066,4.99316 42.40272,27.11888 16.24667,15.27572 23.27921,20.91178 29.84255,23.91658 6.91122,3.16406 11.47754,2.60112 18.99507,-2.34172 5.88729,-3.87094 20.13344,-17.69563 26.14311,-25.36968 l 3.46603,-4.42594 -6.47338,5.25573 c -11.98359,9.72948 -18.87996,12.0529 -28.40862,9.571 -8.45296,-2.20171 -16.9081,-8.28463 -34.94068,-25.13753 -17.96354,-16.78837 -23.96578,-21.60337 -31.12408,-24.96778 -6.03544,-2.83666 -8.97577,-2.94055 -15.29265,-0.54032 -7.06038,2.68273 -15.91714,9.03529 -32.07065,23.00285 -31.34944,27.10713 -39.271,31.11864 -54.68035,27.69039 -11.03367,-2.45476 -33.13173,-13.79216 -55.693973,-28.57376 -3.680923,-2.41155 -4.553157,-4.72439 -3.15539,-8.36691 1.007538,-2.62561 3.291153,-1.85341 12.870383,4.35206 22.36503,14.48817 42.05559,23.94143 51.68783,24.81485 4.8988,0.4442 6.60244,0.11043 11.38869,-2.23126 7.03336,-3.44111 15.7461,-9.99277 31.60679,-23.76715 16.22747,-14.09291 22.87927,-19.05015 31.22368,-23.26934 5.67049,-2.86718 7.98459,-3.48095 13.12427,-3.48095 12.32159,0 18.53483,3.8498 43.49137,26.94774 35.10213,32.48796 39.22986,33.03082 63.70193,8.37778 12.3471,-12.4384 15.14287,-16.66859 6.67005,-10.09222 -9.01729,6.99896 -13.88039,9.1125 -20.87198,9.0711 -11.02851,-0.0653 -18.01404,-4.60834 -43.5,-28.29022 -23.72943,-22.04969 -31.47949,-26.63804 -40.78827,-24.14832 -8.31435,2.22375 -17.954,8.98523 -38.85237,27.25196 -19.65164,17.177 -30.71162,24.14633 -40.43371,25.47889 -8.13969,1.11567 -21.79822,-3.56522 -40.42565,-13.85421 -10.24119,-5.65679 -28.67101,-17.483 -29.65833,-19.03142 -0.87861,-1.37793 0.48295,-4.88248 2.3559,-6.06391 1.08796,-0.68626 2.72066,-0.1124 5.90317,2.07486 14.2425,9.78851 38.19274,22.76641 48.66153,26.3682 3.05296,1.05038 7.39288,1.90193 9.64428,1.89236 l 4.09345,-0.0174 8.69761,-17.73259 c 19.99905,-40.77386 41.13007,-70.65716 71.257,-100.77101 30.07487,-30.06181 58.96722,-50.35374 101.04539,-70.96708 19.77168,-9.68579 52.09701,-23.03172 68.53628,-28.2961 40.07445,-12.83311 61.45799,-5.59083 64.92088,21.9877 1.71956,13.69464 -1.56554,17.24138 -32.77297,35.38311 -23.48928,13.65496 -42.43198,26.33234 -52.47205,35.11684 -29.20997,25.55713 -38.48623,52.9337 -28.68658,84.66129 1.13014,3.65896 2.4954,6.65266 3.0339,6.65266 0.53851,0 4.58784,-3.11843 8.99852,-6.92984 21.81385,-18.85005 33.13636,-16.59037 65.18688,13.0096 20.92356,19.32376 30.02221,25.99736 37.30774,27.36413 4.64938,0.87223 12.51085,-2.6917 22.05912,-10.00031 3.91144,-2.99397 7.39894,-5.44358 7.75,-5.44358 1.23803,0 0.61203,3.00232 -1.73036,8.29888 -1.99725,4.51614 -3.36918,5.98627 -8.75,9.37626 -8.16987,5.14714 -12.91982,6.67171 -18.97393,6.08999 -10.05076,-0.96575 -19.6909,-7.62703 -46.56101,-32.17333 -11.36005,-10.3776 -21.3785,-17.54933 -27.43328,-19.63816 -4.73543,-1.63368 -9.49639,-0.64298 -15.51939,3.22939 -5.10548,3.28245 -27.39375,25.14687 -27.39375,26.87279 0,0.54487 2.33586,-0.85572 5.19081,-3.11242 8.40768,-6.64589 13.80989,-8.94353 21.02595,-8.94262 10.99201,0.001 20.62191,6.01558 43.28324,27.03185 17.74345,16.4554 26.59442,22.87856 34.37964,24.94933 4.0698,1.08252 4.81265,0.95057 10.5,-1.86514 3.3662,-1.66654 9.81456,-5.96124 14.32968,-9.54377 4.51513,-3.58254 8.4484,-6.12688 8.7406,-5.6541 0.29219,0.47279 -0.42,3.27193 -1.58266,6.22033 -2.67231,6.77674 -8.0382,11.84749 -17.46966,16.50877 -6.35123,3.13895 -8.00462,3.54926 -12.72468,3.15784 -10.15969,-0.84252 -20.33983,-7.47037 -41.17292,-26.8059 -19.70799,-18.2913 -30.9471,-25.9675 -38.05366,-25.99023 -7.2366,-0.0231 -19.65201,9.40707 -34.94634,26.54376 l -7,7.84323 7.5,-5.58657 c 10.7478,-8.00577 15.18185,-10.01019 22.1439,-10.01019 10.88474,0 19.48002,5.40515 43.58323,27.40733 20.55377,18.76214 29.95201,25.0654 37.37285,25.0654 4.74491,0 11.91013,-3.96898 22.49063,-12.45807 7.6181,-6.11226 10.40939,-7.80837 10.40939,-6.32518 0,0.26921 -1.17925,3.43519 -2.62055,7.0355 -2.30042,5.74633 -3.36935,7.07653 -8.75,10.8887 -22.47447,15.92307 -30.78124,13.41238 -67.10695,-20.28282 -11.20396,-10.39264 -21.66013,-18.38668 -27.53551,-21.05169 -11.06056,-5.01694 -16.21778,-2.09473 -42.02072,23.81002 -22.87063,22.96089 -27.67613,26.35952 -38.10414,26.94876 -11.82267,0.66804 -19.46564,-4.09655 -44.93194,-28.01035 -15.0286,-14.11241 -20.79353,-18.7409 -27.64695,-22.19691 -7.14338,-3.60224 -11.62885,-3.41727 -19.74727,0.81434 -7.78098,4.05572 -10.76952,6.30295 -28.03597,21.08163 -15.75574,13.48562 -24.52441,20.3196 -30.5,23.77055 -4.16819,2.40717 -15.06275,5.88056 -17.4601,5.56661 -0.57194,-0.0749 -2.1649,-0.32258 -3.5399,-0.55041 z"
         id="path4169"
         inkscape:connector-curvature="0" />
      <path
         style="fill:#2f358d"
         d="m 333.12148,478.11084 c -6.73385,-2.29058 -12.47594,-6.48682 -25.84835,-18.88962 -28.65643,-26.5786 -36.8162,-32.26015 -47.40249,-33.00582 -10.52952,-0.74166 -22.29275,5.62731 -42.08489,22.78608 -17.14185,14.8611 -24.14085,20.49189 -30.90663,24.86482 -11.05989,7.14836 -11.40708,5.96145 -3.25399,-11.12421 17.3347,-36.32673 40.12181,-69.26232 67.16062,-97.0713 27.18461,-27.95893 53.19154,-47.72872 87.5,-66.51523 30.9075,-16.92422 83.33752,-38.19316 103.5,-41.98617 14.25458,-2.6816 25.09508,-2.17143 32.45753,1.52748 8.73297,4.38748 14.20016,13.8371 15.24989,26.35833 0.95324,11.37018 -2.61448,15.26599 -27.3326,29.84609 -39.61466,23.36691 -52.59092,32.46179 -65.99033,46.25172 -17.05237,17.54935 -24.38449,33.75708 -24.38449,53.90218 0,9.12043 0.75102,13.27197 5.19575,28.7213 l 1.22888,4.27143 -11.46232,11.51455 c -18.16047,18.24322 -24.40218,21.68614 -33.62658,18.54837 z"
         id="path4167"
         inkscape:connector-curvature="0" />
    </g>
  </g>
</svg>
